<?xml version="1.0" standalone="no"?>
<!DOCTYPE svg PUBLIC "-//W3C//DTD SVG 20010904//EN"
 "http://www.w3.org/TR/2001/REC-SVG-20010904/DTD/svg10.dtd">
<svg version="1.0" xmlns="http://www.w3.org/2000/svg"
 width="293.000000pt" height="293.000000pt" viewBox="0 0 293.000000 293.000000"
 preserveAspectRatio="xMidYMid meet">

<g transform="translate(0.000000,293.000000) scale(0.100000,-0.100000)"
fill="#000000" stroke="none">
<path d="M1351 2610 c-146 -94 -197 -110 -295 -92 -152 28 -221 8 -263 -78
-11 -25 -38 -81 -60 -125 -43 -90 -101 -143 -188 -171 -122 -39 -178 -98 -178
-183 0 -25 4 -90 8 -143 8 -95 7 -97 -24 -160 -17 -35 -58 -101 -91 -148 -37
-53 -59 -95 -60 -113 0 -20 19 -51 67 -110 111 -136 127 -191 108 -373 -5 -56
-4 -92 4 -117 16 -48 79 -103 139 -120 129 -39 196 -103 237 -228 42 -124 116
-181 214 -165 168 28 242 16 342 -56 30 -21 71 -50 91 -64 48 -33 114 -42 156
-20 17 9 57 39 89 67 104 92 167 110 293 84 83 -17 122 -14 175 12 51 26 73
53 101 125 48 125 118 195 246 243 121 46 166 117 147 231 -4 27 -8 83 -8 124
-1 90 22 147 93 228 95 110 94 196 -4 307 -87 98 -105 176 -80 329 22 135 -29
207 -178 257 -55 18 -78 33 -127 83 -49 50 -65 75 -88 138 -34 95 -64 131
-122 154 -40 15 -54 15 -119 4 -98 -17 -189 -10 -247 18 -26 13 -77 50 -114
82 -94 83 -105 82 -264 -20z m91 -442 c-6 -6 -16 -7 -22 -3 -9 6 -9 9 1 16 17
10 34 0 21 -13z m378 -132 c0 -11 -19 -15 -25 -6 -3 5 1 10 9 10 9 0 16 -2 16
-4z m-190 -32 c0 -8 -4 -12 -10 -9 -5 3 -10 10 -10 16 0 5 5 9 10 9 6 0 10 -7
10 -16z m40 -32 c0 -10 -7 -27 -15 -38 -16 -21 -20 -8 -9 34 8 26 24 29 24 4z
m-685 -2 c3 -5 1 -10 -4 -10 -6 0 -11 5 -11 10 0 6 2 10 4 10 3 0 8 -4 11 -10z
m985 -21 c0 -5 -4 -9 -10 -9 -5 0 -10 7 -10 16 0 8 5 12 10 9 6 -3 10 -10 10
-16z m-740 -5 c0 -8 -4 -12 -10 -9 -5 3 -10 10 -10 16 0 5 5 9 10 9 6 0 10 -7
10 -16z m302 -86 c-6 -65 -19 -86 -40 -65 -26 27 9 140 37 122 5 -2 6 -28 3
-57z m248 58 c0 -3 -4 -8 -10 -11 -5 -3 -10 -1 -10 4 0 6 5 11 10 11 6 0 10
-2 10 -4z m120 -6 c0 -5 -4 -10 -10 -10 -5 0 -10 5 -10 10 0 6 5 10 10 10 6 0
10 -4 10 -10z m-80 -20 c0 -5 -5 -10 -11 -10 -5 0 -7 5 -4 10 3 6 8 10 11 10
2 0 4 -4 4 -10z m-60 -40 c0 -5 -2 -10 -4 -10 -3 0 -8 5 -11 10 -3 6 -1 10 4
10 6 0 11 -4 11 -10z m300 -24 c0 -3 -4 -8 -10 -11 -5 -3 -10 -1 -10 4 0 6 5
11 10 11 6 0 10 -2 10 -4z m-300 -25 c0 -12 -28 -22 -34 -12 -3 5 -3 11 1 15
9 9 33 7 33 -3z m-530 -41 c0 -5 -4 -10 -10 -10 -5 0 -10 5 -10 10 0 6 5 10
10 10 6 0 10 -4 10 -10z m175 0 c-7 -12 30 -50 49 -50 8 0 17 10 19 23 3 14 5
9 6 -14 1 -42 -12 -57 -52 -57 -21 0 -31 7 -37 24 -11 27 -2 84 12 84 5 0 7
-4 3 -10z m140 -29 c-7 -32 -25 -43 -25 -15 0 19 20 57 27 51 3 -3 2 -19 -2
-36z m122 13 c20 -4 33 -13 37 -28 9 -32 7 -87 -4 -128 -6 -20 -12 -61 -14
-91 -2 -30 -7 -60 -11 -67 -4 -7 -9 -49 -11 -94 -2 -44 -7 -106 -11 -136 -3
-30 -6 -62 -5 -70 2 -8 -3 -5 -10 7 -11 19 -15 20 -31 8 -14 -10 -25 -11 -40
-4 -22 10 -67 71 -67 90 0 17 -13 9 -62 -37 -44 -41 -54 -46 -84 -41 -21 4
-33 2 -31 -5 1 -6 -4 -13 -12 -16 -10 -3 -12 1 -8 18 3 13 -1 33 -9 46 -11 16
-15 43 -12 98 2 42 6 76 10 76 4 0 11 12 14 27 4 15 26 47 50 70 40 41 70 51
130 44 14 -2 25 57 12 65 -4 3 -1 12 7 20 8 9 15 22 15 29 0 8 12 41 27 75 29
68 20 65 120 44z m183 -10 c0 -8 -4 -12 -10 -9 -5 3 -10 10 -10 16 0 5 5 9 10
9 6 0 10 -7 10 -16z m-1130 -34 c0 -5 -5 -10 -11 -10 -5 0 -7 5 -4 10 3 6 8
10 11 10 2 0 4 -4 4 -10z m618 -19 c3 -8 -1 -12 -9 -9 -7 2 -15 10 -17 17 -3
8 1 12 9 9 7 -2 15 -10 17 -17z m-438 -1 c0 -5 -4 -10 -10 -10 -5 0 -10 5 -10
10 0 6 5 10 10 10 6 0 10 -4 10 -10z m135 -9 c3 -5 1 -12 -5 -16 -5 -3 -10 1
-10 9 0 18 6 21 15 7z m221 -15 c3 -14 3 -29 0 -35 -4 -5 -2 -12 4 -16 6 -4 7
-12 3 -18 -4 -7 0 -6 10 2 9 7 17 10 17 5 0 -5 12 -10 26 -11 31 -1 46 -20 37
-48 -12 -40 -50 -46 -79 -14 -10 11 -14 20 -9 19 6 -2 17 -2 25 -1 37 3 -18
20 -87 27 -72 6 -73 7 -51 22 29 21 51 24 45 8 -4 -11 0 -11 19 -2 20 10 23
16 17 49 -6 42 13 53 23 13z m-426 -30 c0 -9 21 -14 73 -15 101 -4 126 -7 134
-14 3 -4 -5 -7 -18 -8 -22 0 -23 -1 -4 -9 16 -7 13 -9 -16 -9 -59 -1 -103 -13
-87 -22 10 -7 9 -9 -3 -9 -9 0 -19 -9 -22 -19 -3 -14 -1 -18 9 -14 12 5 38
-17 76 -65 15 -19 25 -21 76 -18 60 5 128 -6 144 -22 6 -6 -6 -8 -31 -7 -29 2
-41 -2 -41 -11 0 -13 -5 -15 -42 -18 -7 -1 -20 -8 -30 -18 -13 -13 -15 -24 -7
-55 11 -46 2 -118 -17 -134 -17 -14 -54 -5 -85 21 -16 13 -20 22 -13 27 12 9
34 67 34 91 0 8 -6 12 -15 8 -8 -3 -15 -1 -15 4 0 5 -6 7 -14 4 -19 -7 -35 24
-34 64 1 23 4 29 12 23 7 -6 18 -6 25 -2 10 7 11 13 2 30 -7 12 -16 19 -22 16
-5 -4 -9 1 -9 9 0 8 -8 21 -19 28 -10 7 -18 18 -18 23 0 6 -17 13 -37 16 -39
6 -49 12 -52 32 -1 7 -3 17 -4 22 -5 25 12 53 31 48 13 -4 19 0 19 11 0 10 5
14 10 11 6 -3 10 -12 10 -19z m638 -5 c11 -7 11 -9 -1 -14 -9 -3 -21 1 -27 9
-10 11 -10 14 1 14 8 0 20 -4 27 -9z m335 3 c3 -4 1 -16 -4 -27 -9 -15 -13
-17 -19 -7 -14 23 5 51 23 34z m-663 -14 c8 -5 13 -10 10 -11 -44 -7 -55 -11
-67 -20 -10 -9 -13 -8 -13 1 0 10 -4 9 -17 -1 -14 -11 -14 -9 1 9 11 12 26 20
33 18 7 -3 15 -1 18 4 8 12 16 12 35 0z m730 -20 c0 -5 -2 -10 -4 -10 -3 0 -8
5 -11 10 -3 6 -1 10 4 10 6 0 11 -4 11 -10z m-600 -80 c0 -5 -10 -10 -22 -10
-19 0 -20 2 -8 10 19 13 30 13 30 0z m643 -17 c22 -11 32 -12 43 -2 9 8 30 9
62 5 130 -19 152 -19 171 -1 15 13 24 14 39 6 32 -17 30 -30 -9 -72 -20 -22
-58 -74 -83 -116 -46 -74 -47 -75 -21 -69 32 8 120 -3 108 -14 -4 -3 -30 -15
-58 -25 -27 -10 -69 -29 -93 -41 l-44 -23 -24 24 c-13 13 -24 26 -24 28 0 2
13 19 29 38 32 37 144 219 138 225 -2 2 -30 0 -63 -4 -47 -6 -59 -11 -58 -25
2 -22 -8 -22 -39 3 -33 26 -35 26 -39 -12 -2 -28 -7 -33 -28 -33 -17 0 -26 6
-28 20 -8 55 -13 65 -33 65 -34 0 -71 -32 -95 -85 -40 -86 -27 -156 32 -175
29 -10 42 -8 90 14 48 22 55 23 52 8 -1 -9 1 -23 6 -31 6 -9 5 -12 -5 -9 -8 3
-27 -6 -42 -18 -39 -33 -76 -30 -133 9 -56 37 -78 75 -76 132 2 47 29 134 49
153 7 7 13 17 13 21 0 13 63 28 100 23 19 -2 48 -11 63 -19z m-1098 7 c3 -5
-1 -10 -9 -10 -9 0 -16 5 -16 10 0 6 4 10 9 10 6 0 13 -4 16 -10z m165 -14 c0
-3 -4 -8 -10 -11 -5 -3 -10 -1 -10 4 0 6 5 11 10 11 6 0 10 -2 10 -4z m235 -6
c3 -5 2 -10 -4 -10 -5 0 -13 5 -16 10 -3 6 -2 10 4 10 5 0 13 -4 16 -10z m135
0 c0 -5 -4 -10 -9 -10 -6 0 -13 5 -16 10 -3 6 1 10 9 10 9 0 16 -4 16 -10z
m-70 -29 c0 -6 -4 -13 -10 -16 -5 -3 -10 1 -10 9 0 9 5 16 10 16 6 0 10 -4 10
-9z m850 -11 c0 -5 -5 -10 -11 -10 -5 0 -7 5 -4 10 3 6 8 10 11 10 2 0 4 -4 4
-10z m-306 -21 c-7 -11 -34 -12 -34 -1 0 14 11 21 26 15 8 -3 11 -9 8 -14z
m83 -81 c-3 -8 -6 -5 -6 6 -1 11 2 17 5 13 3 -3 4 -12 1 -19z m-1117 -98 c0
-5 -2 -10 -4 -10 -3 0 -8 5 -11 10 -3 6 -1 10 4 10 6 0 11 -4 11 -10z m130 0
c0 -5 -5 -10 -11 -10 -5 0 -7 5 -4 10 3 6 8 10 11 10 2 0 4 -4 4 -10z m310
-40 c0 -5 -4 -10 -10 -10 -5 0 -10 5 -10 10 0 6 5 10 10 10 6 0 10 -4 10 -10z
m471 -3 c-1 -12 -15 -9 -19 4 -3 6 1 10 8 8 6 -3 11 -8 11 -12z m-501 -47 c0
-5 -4 -10 -10 -10 -5 0 -10 5 -10 10 0 6 5 10 10 10 6 0 10 -4 10 -10z m540
-29 c0 -6 -4 -13 -10 -16 -5 -3 -10 1 -10 9 0 9 5 16 10 16 6 0 10 -4 10 -9z
m-556 -42 c-3 -5 -10 -7 -15 -3 -5 3 -7 10 -3 15 3 5 10 7 15 3 5 -3 7 -10 3
-15z m97 -42 c-1 -12 -15 -9 -19 4 -3 6 1 10 8 8 6 -3 11 -8 11 -12z m-86 -17
c10 -11 15 -23 12 -27 -8 -7 -47 25 -47 39 0 14 16 9 35 -12z m220 10 c3 -5 1
-10 -4 -10 -6 0 -11 5 -11 10 0 6 2 10 4 10 3 0 8 -4 11 -10z m-445 -30 c0 -5
-7 -10 -15 -10 -8 0 -15 5 -15 10 0 6 7 10 15 10 8 0 15 -4 15 -10z m906 -26
c-4 -9 -9 -15 -11 -12 -3 3 -3 13 1 22 4 9 9 15 11 12 3 -3 3 -13 -1 -22z
m-302 -35 c-3 -5 -10 -7 -15 -3 -5 3 -7 10 -3 15 3 5 10 7 15 3 5 -3 7 -10 3
-15z m-504 1 c0 -5 -4 -10 -10 -10 -5 0 -10 5 -10 10 0 6 5 10 10 10 6 0 10
-4 10 -10z m380 2 c0 -13 -12 -22 -22 -16 -10 6 -1 24 13 24 5 0 9 -4 9 -8z
m-455 -22 c3 -5 1 -10 -4 -10 -6 0 -11 5 -11 10 0 6 2 10 4 10 3 0 8 -4 11
-10z m65 -29 c0 -6 -4 -13 -10 -16 -5 -3 -10 1 -10 9 0 9 5 16 10 16 6 0 10
-4 10 -9z m380 -11 c0 -5 -4 -10 -10 -10 -5 0 -10 5 -10 10 0 6 5 10 10 10 6
0 10 -4 10 -10z m240 -15 c0 -9 -6 -12 -15 -9 -8 4 -15 10 -15 15 0 5 7 9 15
9 8 0 15 -7 15 -15z m-445 -5 c3 -5 2 -10 -4 -10 -5 0 -13 5 -16 10 -3 6 -2
10 4 10 5 0 13 -4 16 -10z m-75 -35 c0 -8 -4 -15 -10 -15 -5 0 -10 7 -10 15 0
8 5 15 10 15 6 0 10 -7 10 -15z m150 -6 c0 -5 -7 -9 -15 -9 -8 0 -15 7 -15 15
0 9 6 12 15 9 8 -4 15 -10 15 -15z m-215 -19 c3 -5 1 -10 -4 -10 -6 0 -11 5
-11 10 0 6 2 10 4 10 3 0 8 -4 11 -10z m735 -20 c0 -5 -4 -10 -10 -10 -5 0
-10 5 -10 10 0 6 5 10 10 10 6 0 10 -4 10 -10z m-810 -10 c0 -5 -4 -10 -10
-10 -5 0 -10 5 -10 10 0 6 5 10 10 10 6 0 10 -4 10 -10z m318 -63 c-16 -22
-23 -26 -29 -15 -13 20 -11 41 7 67 l17 24 13 -24 c10 -20 9 -28 -8 -52z m262
69 c0 -11 -19 -15 -25 -6 -3 5 1 10 9 10 9 0 16 -2 16 -4z m-136 -58 c-9 -14
-23 2 -17 18 4 12 8 13 14 3 4 -7 5 -17 3 -21z m211 12 c-3 -5 -15 -10 -26
-10 -10 0 -19 5 -19 10 0 6 12 10 26 10 14 0 23 -4 19 -10z m-645 -30 c0 -5
-4 -10 -10 -10 -5 0 -10 5 -10 10 0 6 5 10 10 10 6 0 10 -4 10 -10z m530 -32
c0 -5 -4 -8 -10 -8 -5 0 -10 10 -10 23 0 18 2 19 10 7 5 -8 10 -18 10 -22z
m70 -13 c0 -14 -4 -25 -10 -25 -5 0 -10 11 -10 25 0 14 5 25 10 25 6 0 10 -11
10 -25z m-500 -5 c0 -5 -7 -10 -15 -10 -8 0 -15 5 -15 10 0 6 7 10 15 10 8 0
15 -4 15 -10z m435 -120 c3 -5 1 -10 -4 -10 -6 0 -11 5 -11 10 0 6 2 10 4 10
3 0 8 -4 11 -10z"/>
<path d="M1590 1665 c-11 -26 -20 -53 -20 -60 0 -8 -7 -20 -15 -29 -8 -8 -12
-17 -8 -19 10 -6 8 -133 -2 -167 -4 -14 2 -7 14 14 11 21 18 43 15 48 -3 4 2
15 10 24 19 19 21 44 4 44 -8 1 -5 6 5 15 21 15 36 70 37 127 0 54 -17 56 -40
3z"/>
<path d="M1615 1518 c-28 -85 -35 -111 -35 -121 0 -7 -9 -33 -21 -56 -25 -53
-20 -94 19 -141 31 -36 56 -34 46 3 -3 13 2 36 10 52 20 38 20 55 1 55 -9 0
-15 9 -15 24 0 13 -6 27 -12 29 -10 4 -10 8 -1 14 6 4 13 41 15 81 3 71 1 84
-7 60z"/>
<path d="M1420 1448 c-34 -34 -41 -47 -36 -69 5 -26 -14 -56 -27 -43 -7 7 -27
-39 -27 -62 0 -8 3 -13 8 -13 19 3 22 -3 12 -21 -6 -11 -15 -18 -20 -15 -14 8
-23 -16 -11 -28 7 -7 11 -7 11 -1 0 6 14 11 30 11 19 0 41 9 58 26 16 15 32
24 37 20 4 -5 5 -3 2 3 -4 7 0 17 8 24 8 7 15 19 15 26 0 8 5 14 12 14 9 0 9
3 0 12 -16 16 -15 28 1 28 6 0 20 13 29 30 16 28 16 31 -2 52 -11 13 -19 17
-20 10 0 -21 -20 -3 -20 19 0 28 -13 24 -60 -23z m37 -11 c-11 -25 -27 -36
-27 -19 0 11 31 54 36 49 2 -2 -2 -15 -9 -30z m-62 -187 c3 -5 1 -10 -4 -10
-6 0 -11 5 -11 10 0 6 2 10 4 10 3 0 8 -4 11 -10z"/>
<path d="M1515 1300 c3 -5 8 -10 11 -10 2 0 4 5 4 10 0 6 -5 10 -11 10 -5 0
-7 -4 -4 -10z"/>
<path d="M1370 1180 c0 -5 5 -10 11 -10 5 0 7 5 4 10 -3 6 -8 10 -11 10 -2 0
-4 -4 -4 -10z"/>
<path d="M860 1595 c-12 -14 -5 -55 10 -55 8 0 20 34 20 58 0 16 -15 15 -30
-3z"/>
<path d="M800 1580 c0 -5 5 -10 11 -10 5 0 7 5 4 10 -3 6 -8 10 -11 10 -2 0
-4 -4 -4 -10z"/>
<path d="M910 1481 c0 -5 7 -12 16 -15 14 -5 15 -4 4 9 -14 17 -20 19 -20 6z"/>
<path d="M1745 1440 c-3 -5 -1 -10 4 -10 6 0 11 5 11 10 0 6 -2 10 -4 10 -3 0
-8 -4 -11 -10z"/>
</g>
</svg>
